<svg version="1.1" id="Layer_1" xmlns="http://www.w3.org/2000/svg" x="0" y="0" viewBox="0 0 829 382.73"
  style="enable-background:new 0 0 829 382.73" xml:space="preserve">
  <path fill="#231f20"
    d="M302.28 183.46 270.41.98h56.65l8.72 64.28 6.26 72.45h3.54l9.81-72.45L368.73.98H442l12.53 61.55 11.44 75.17h3.54l6.54-75.17 7.9-61.55h55.56l-32.14 182.48H432.2l-15.8-69.18-9.81-62.37h-3.27l-10.08 62.37-15.8 69.18h-75.16zM530.25 147.78c0-21.79 14.16-34.86 43.85-39.77l44.67-7.08v-4.9c0-8.72-3-11.71-17.97-11.71-14.98 0-18.52 2.72-18.52 11.17v4.36h-48.75v-3.27c0-34.59 27.24-55.84 69.18-55.84 43.31 0 64.82 19.34 64.82 58.83v83.89H619.6v-16.89h-2.45c-5.99 8.72-18.25 19.61-44.4 19.61-23.98.01-42.5-12.8-42.5-38.4zm59.37 1.36c19.88 0 28.33-5.18 29.14-18.25l-34.04 5.72c-5.45.82-7.63 2.72-7.63 6.54.01 4.9 3 5.99 12.53 5.99zM682.5 183.46v-140h47.66v21.25h2.45c7.63-15.8 25.06-23.97 45.76-23.97 36.23 0 49.85 24.24 49.85 53.11v89.61h-51.21v-78.99c0-14.98-3.54-19.88-21.52-19.88-16.89 0-22.06 4.09-22.06 19.07v79.8H682.5z" />
  <g>
    <path fill="#231f20"
      d="M152.44 320.09v-3.54h50.39v2.18c0 14.98 5.45 17.98 29.96 17.98 19.34 0 23.42-3 23.42-10.89 0-8.44-2.72-11.17-15.25-13.07l-39.77-6.26c-37.04-5.72-52.29-25.33-52.29-53.65 0-32.41 24.79-58.01 78.44-58.01 50.93 0 75.17 25.6 75.17 59.65v4.63h-50.39v-3.27c0-10.62-5.17-14.98-28.05-14.98-19.34 0-24.24 3.27-24.24 10.08 0 5.72 3.54 8.17 14.16 10.08l39.77 7.08c38.68 6.81 53.66 26.96 53.66 55.29 0 31.87-21.79 59.37-76.53 59.37-52.3-.03-78.45-24.54-78.45-62.67zM316.13 344.33c0-21.79 14.16-34.86 43.85-39.76l44.67-7.08v-4.9c0-8.72-3-11.71-17.98-11.71s-18.52 2.72-18.52 11.17v4.36H319.4v-3.27c0-34.59 27.24-55.84 69.18-55.84 43.31 0 64.82 19.34 64.82 58.83v83.89h-47.94v-16.89h-2.45c-5.99 8.72-18.25 19.61-44.39 19.61-23.97-.01-42.49-12.81-42.49-38.41zm59.38 1.36c19.88 0 28.33-5.17 29.14-18.25l-34.04 5.72c-5.45.82-7.63 2.72-7.63 6.54 0 4.9 3 5.99 12.53 5.99zM468.39 380.01V197.53h50.93v182.48h-50.93zM531.03 311.38c0-46.3 26.15-74.08 72.72-74.08 45.21 0 67.82 26.42 67.82 63.73 0 7.63-1.36 16.07-2.18 20.7h-90.7c.82 14.98 5.45 18.52 24.24 18.52 12.26 0 16.34-2.45 16.34-8.72v-.55h50.66v3.27c0 28.33-26.15 48.48-67.82 48.48-45.48 0-71.08-26.69-71.08-71.35zm47.66-17.44h44.12c-.27-8.99-4.9-16.34-21.79-16.34-15.79 0-21.51 4.9-22.33 16.34zM683.29 380.01V197.53h50.93v61.01h2.45c7.62-13.07 23.15-21.25 41.67-21.25 37.04 0 50.66 24.24 50.66 53.11v89.61h-51.21v-78.99c0-14.98-3.54-19.88-21.52-19.88-16.89 0-22.06 4.9-22.06 19.88v78.99h-50.92z" />
  </g>
  <g>
    <path fill="#f16522"
      d="M43.88 169.21c-.82 0-1.64.27-2.19 1.1-2.19.82-4.11 1.37-6.31 2.19-.55.27-1.1.82-1.64 1.1h-.55c-1.1-.28-1.92.55-3.02.55h-.82c-1.92.55-3.84 1.37-5.76 2.47-1.37.55-2.74 1.1-4.11 1.64-1.37.28-2.74.82-4.39 1.1-.27-.82-1.1-1.37-1.64-1.92-1.64-1.37-3.29-3.02-5.21-4.12-1.37-.55-2.47-1.37-3.84-1.64-.55-.27-.82-.55-1.37-1.1-.82-1.1-1.37-2.47-2.19-3.84-.27-.82-.55-1.64-.82-2.47.27-.55.55-1.1 1.1-1.37 0-.27.27-.27.27-.55.27-1.1 1.1-2.19 1.1-3.29.27-.55.55-1.1.82-1.37.82-1.37 1.92-2.47 2.74-3.84 1.64-1.65 3.29-3.29 5.21-4.94.82-.55 1.64-1.1 2.47-1.64 1.1-.55 1.64-1.1 2.74-1.65 0-.27 0-.27.28-.27 0-3.02 1.1-5.76 1.92-8.5 0-.55.27-1.1.55-1.64.28-1.1.55-2.19.82-3.02.27-.82.55-1.65.82-2.47.82-1.37 1.1-3.02 1.64-4.66.55-1.37 1.1-2.74 1.64-4.11.28-.82.28-1.37.55-2.19.55-2.19 1.64-4.11 2.19-6.03.27-.82.55-1.37.82-1.92.55-1.1.82-2.19 1.37-3.02.28-1.37 1.1-2.74.55-4.11.82-.82 1.1-1.65 1.64-2.74 0-.82.27-1.37.82-2.19.27-.27.27-.82.27-1.1-.27-1.1 0-2.47 0-3.57.27-1.37.27-2.74.82-4.11 1.1-1.1 2.19-2.47 2.47-4.11.27-1.1.55-2.19 1.64-3.29.55-.27 1.1-.82 1.64-1.1.82-.82 1.37-1.64 1.65-2.47.27-.55.55-1.37.82-2.19.55-1.92 1.65-3.84 2.47-5.76.27-.55.55-1.37.82-2.19 1.1-2.74 2.47-5.48 3.84-8.23.27-1.1.82-2.19 1.64-3.02.82-1.37 1.37-2.74 1.92-4.11 1.1-2.19 2.19-4.39 3.02-6.58.27-.82.55-1.64.82-2.47.55.27.27.55.55.82.82-.82 1.1-2.19 1.92-2.74 0-.55-.27-.55-.55-1.1.55-.27-.27-1.1 0-1.64.55 0 .55.55.82.82h.55c.28-.55 0-.82-.27-1.1v-.28c0-2.47 1.37-4.39 2.47-6.31.27-.82.82-1.64 1.1-2.74 0-.82.55-1.92.82-2.74-.82-.27-1.65 0-2.47-.55-1.65-.82-3.02-1.65-4.66-2.47-.82-.55-1.37-1.37-2.19-2.19-1.1-1.1-2.47-1.64-3.57-2.74v-1.37c.28-.28.55-.28.82-.28.55 0 .82-.27 1.1-.55.55-.82 1.37-1.64 1.92-2.19.28-.55.28-1.1 0-1.37.55-2.47 2.74-3.29 3.84-4.94.27-.27-.28-.55-.28-.55 0-.82.82-.55 1.1-.82 1.65-1.37 3.57-2.19 5.21-3.02 1.37-.55 2.19-1.37 3.57-2.19 1.1-.55 2.19-.82 3.57-1.1 1.92-.27 3.57-.55 5.48-.82C77.89 0 78.98 0 80.08 0h3.29c.55 0 1.1.27 1.92.82.82.55 1.92.82 3.02.82 1.37.28 2.47.82 3.56 1.65 1.1 0 2.47 0 3.29.82 1.37.28 3.02.55 4.39 1.1.27 0 .55 0 .82.27 1.37.82 2.74 1.1 3.84 1.92.55.27 1.1.27 1.65.55 1.37.55 2.47 1.37 3.56 1.92.55.27.82.55 1.37.82.27.55 1.1.82 1.64.82 2.19.55 4.11 1.1 5.76 1.92.82.55 1.65.82 2.19 1.37 1.37 1.1 3.02 1.64 4.11 2.74.28.27.28.55.28.55.27.55 0 .82 0 1.37.27.27.27.82.55 1.37.55.55 1.37 1.1 1.37 2.19 0 .28.27.55.55.82.55.55.82 1.37 1.1 2.19h.82v.27c.82 1.92.55 4.11.82 6.03.27 1.64.27 3.29-.27 4.94 0 1.1.27 1.92 0 3.02-.55.27-.55 1.1-.82 1.92.55.55-.27 1.37.27 1.92-1.1 2.19-2.74 4.12-3.84 6.31 0 0 0 .28-.27.28-.82 1.1-1.92 2.47-3.02 3.56-.55.82-1.65 1.65-2.19 2.74-1.65 1.37-2.74 3.02-4.39 4.11-1.1 1.1-2.47 2.19-3.29 3.57-.82 1.37-1.92 2.19-3.29 2.74-.55.27-1.1.55-1.37 1.1-.55 1.1-1.64 2.19-2.47 3.02-.55.55-.82 1.1-1.1 1.65.55.55 1.1.27 1.64.27 1.65 0 3.29 0 4.94.55 1.37.55 3.02.82 4.39.82 1.37 0 2.47.55 3.57 1.37.55.27 1.37.55 1.92.82 1.37.55 2.19 1.1 3.29 1.92.55.55 1.1.82 1.92.82.82.27 1.65.82 2.19 1.64.27.55.82 1.1 1.37 1.37 1.92 1.64 3.02 3.84 3.02 6.31 0 1.92.27 3.57.55 5.21.27 2.19.27 4.12.27 6.31v9.33c0 2.19-.27 4.11-1.1 6.03-.55 1.37-1.37 2.74-1.92 4.39-.55 1.1-1.37 1.92-1.64 3.02-.28.82-.55 1.1-.82 1.64-1.1 1.92-2.47 3.84-3.84 5.48-.27.55-.82 1.1-.82 1.65-.82 1.1-1.37 2.47-2.47 3.29-1.1 1.37-2.19 2.74-3.84 3.57-1.1.55-1.92 1.37-2.74 2.19-.55.55-1.37 1.1-2.74 1.1-.55.27-1.1.82-1.65 1.1-.82.55-1.92 1.1-2.74 1.37-.27 0-.55.27-.82.55-1.65 1.64-3.84 2.47-6.03 3.57-1.1.55-2.47 1.1-4.11 1.1 0 0-.28 0-.55-.27-.82 0-1.64 1.1-2.74.82-.55.55-1.37.82-1.64 1.64 0-.27-.28-.27-.28-.55-.82.55-1.92.55-3.02.55-.55.82-1.64.55-2.19 1.37-.55-.28-.82-.28-1.1 0-.27.27.28 0 .28.55-.28.27-.82 0-1.1.27-.55.27-.82.82-1.1.55-.27-.55 0-.55 0-.82-.82 0-1.37-.55-2.47-.27v.82c.27.28.27.28.55.28h.28c0 .27.27.27.27.82-1.65.55-3.29 1.65-5.21 1.92-.28-.27 0-.55 0-.82 1.1-.27 2.19-.55 2.74-1.92-2.47.55-4.66 1.37-6.58 2.47-.82-.28-1.37-.28-1.92.55 0 .27-.55.55-.82.55-.82 0-1.37.55-2.19.55-.28 0-.55.27-.82.27-1.1.55-2.47 1.1-3.57 1.92-.82.55-1.92 1.1-3.02 1.37-.82.27-1.37 1.1-2.19 1.64h-1.37c-.55 0-1.37 0-1.92.27-1.64 1.1-3.84 1.37-5.48 2.74-.55.55-1.37.27-1.64 1.1-.82-.27-1.37.55-2.19.28-.03.56-.58.56-.85.56zm61.98-67.74c-1.37 0-2.74-.27-4.39-.27-1.37 0-2.74-.27-4.11-.27-1.64 0-3.29 0-4.66-.28-1.64 0-3.29-.27-4.94-.27h-1.1c-.27-.27-.82-.27-1.1 0-1.64 0-3.29-.27-4.93-.27-2.47 0-4.66-.27-7.13-.27-1.37 0-2.74.27-4.11 1.1-.28.27-.82.55-1.37.55-1.64 0-3.02.55-4.39 1.64-.27.28-.55.55-1.1.82-1.37.55-2.19 1.64-3.02 3.02-.28.82-.82 1.37-1.37 2.19-.55.82-1.37 1.92-1.37 3.02 0 1.37-.27 2.47-.82 3.56-.27.28-.55.82-.55 1.1-.82 2.47-1.92 4.94-2.74 7.4-.27 1.65-1.1 3.02-1.37 4.66l.27.27c.28-.27.55-.27.82 0s.82.55 1.1 1.1 1.1 1.1 1.92.82c.55 0 1.1 0 1.65.27 1.92-.55 3.84-1.37 5.48-2.47.82-.82 1.64-1.1 2.74-1.1.82 0 1.37-.27 2.19-.55 1.1-1.1 2.74-1.65 4.11-2.19.82-.55 1.65-.82 2.19-1.37 1.92-1.37 4.11-1.37 6.03-2.19.27-.27.27 0 .55 0 1.37-.27 2.74-.82 3.84-1.1 1.92-.55 3.29-1.37 4.94-1.92.55-.28 1.1-.55 1.37-.82.55-.82 1.37-1.1 2.47-1.37 1.65-.55 3.02-1.92 4.12-3.02.55-.82.82-1.1 1.64-1.64a21.92 21.92 0 0 0 3.57-3.57c.82-.82 1.64-2.19 2.19-3.29.82-.82 1.64-1.92 1.64-3.02.02-.27-.26-.27-.26-.27zm-49.91-55.4v-.27.27zm4.11 117.66-.27.27c.27 0 .55-.27.27-.27zm.55-.28c0-.27 0-.27 0 0v.28-.28zm8.78-107.5c.27-.27 0-.27.27-.55v-.27.27c-.27 0-.55.27-.27.55zm.54-3.29h.82c0-.27.55-.55 0-1.1-.27.55-.54.55-.82 1.1zm.28-4.39c.55 0 .55-1.1 1.1-.55.27.55-.27 1.1-.27 1.64.82-.55 1.1-.82 1.37-1.64 0 0-.27.27-.55 0-.27-.82.28-1.37.28-1.92.27-.55.82-1.1.82-1.92-.55.82-1.1 1.64-1.37 2.74-.27.27-.55.27-1.1.27-.01.56-.56.83-.28 1.38zm1.1-3.57c-.27.55-.55 1.1-.55 1.64.82-.27.55-.81.55-1.64zm1.09-3.01c.27 0 .55-.27.55-.55-.55 0-.55.27-.55.55zm.55 5.76c.55 0 .82-.27.82-.55.27-.27.55-.82.82-1.37-.28-.27-.55-.55-.55-.82-.54.82-.81 1.64-1.09 2.74zm.55 13.16c.55-.27.82-.55 1.1-.82.55.27 1.1.27 1.64 0 .55-.27 1.1-.27 1.92-.27.82 0 1.64-.28 2.47-.82.82-.82 1.64-1.37 3.02-1.37.27 0 .82-.27 1.1-.55 1.1-1.37 2.47-2.19 3.84-2.74.27 0 .27-.27.55-.27.82-.82 1.65-1.64 2.47-2.47.82-.55 1.65-.82 2.47-1.37 1.65-1.37 2.74-3.29 4.39-5.21 1.1-1.37 2.19-3.02 3.29-4.39.28-.82 1.1-1.37 1.1-2.19 0-1.1.27-1.92.82-2.47.27-.55 0-.82-.27-1.1-.82-.28-1.1-1.1-1.92-1.65-.55-.55-1.1-1.1-1.92-1.1-1.1-.27-2.47-.55-3.57-.82-.55.27-1.37.27-1.92.27-1.64.27-3.02.27-4.39-.55 0-.28-.55-.28-.82-.28-1.92-.55-3.84-1.37-6.03-1.64l-.82.82a6.76 6.76 0 0 0-1.37 4.11c-.28.55-.28.82-.28 1.37-.55 2.19-.82 4.39-1.64 6.31 0 .27.27.82.27 1.1-.55 1.1 0 2.47-1.1 3.29-.27-.82.28-1.37.28-2.19-1.1 1.37-1.37 3.29-1.92 4.66-.82 1.64-1.1 3.02-1.92 4.66-.27-.55 0-1.1-.55-1.37-.55 1.1-.55 1.92 0 2.74.27.82-.82 1.37 0 2.19.55-.55.27-1.37 1.1-1.64-.29 1.92-.57 3.84-1.39 5.76zm.82-20.57c-.82.27-.82.27-.55 1.1.28-.28.28-.83.55-1.1zm1.1 2.74c0-.55.55-1.1.82-1.64.27-1.1.55-2.19.82-3.29-.82 0-.82 0-1.1.82 0 0 .27 0 .27.27-.27.27-.55.27-.82.82-.55.55 0 1.37-.27 2.19 0 .27-.27.82-.55 1.1.56.28.83.01.83-.27zm-.55 112.45h.27-.27zm1.37-112.72c0 1.1-.27 1.92-.55 3.02-.28.55-.55 1.1-.28 1.65.55-1.1 1.1-1.92 1.1-3.02-.27-.27 0-.55 0-.55.27-.82.55-1.37.55-2.19.55-.27.55-.82.27-1.37.55-.55.82-1.1.82-1.92-.55.82-.82 1.37-1.1 1.92.27.55 0 .82 0 1.37-.53-.01-.81.54-.81 1.09zm4.12 111.62c.28-.27.55-.27.55 0 .27.55 0 .82-.27.82h-.28c0-.27-.28-.55 0-.82zM92.42 3.84c.27 0 .27 0 .27-.27-.27 0-.27 0-.27.27zm34.28 21.12c.27-.27 0-.27 0-.55-.27-.28 0-.82-.55-.82 0 .27.27.55.55.82v.55zM156.61 10.97c.27-1.1.55-2.19 1.1-3.29.55.27 1.37.55 2.19.27.82-.27 1.1-.82 1.65-1.1.82-.55.27-1.37.82-1.92.55 0 1.1 0 1.65.27 1.1.55 2.19.55 3.29.55 1.1-.28 1.92 0 2.74 0 .55.55.55.82.82 1.37.27 2.47 1.64 4.11 4.11 4.94 1.37.55 2.47 1.37 3.84 1.64.55.27.28.82.55 1.37.55-.27 0-.82.27-1.1.55-.27.82 0 1.1.27.27 1.65.27 3.57 1.92 4.66 1.1 1.65.82 3.57 1.1 5.49.55 2.47.55 4.93 1.1 7.4.27 1.65.27 3.29.55 4.66.27 2.47.55 4.94 1.1 7.4.28 1.37.28 2.74.55 4.11 0 .55.27.82.27 1.1 0 .27-.27.55 0 1.1 0 1.1.27 2.47.55 3.84 0 1.37.27 2.47.27 3.84-.27.82-.27 1.37 0 2.19.27 1.1.27 2.19.27 3.29s0 2.19.27 3.56.27 2.74.55 4.12c0 1.37.27 2.74.55 4.39v1.1c0 .82.27 1.64.55 2.74.55-.55.82-.82 1.1-1.37.28-.27.55-.55.82-1.1 0 0 .27-.27.27-.55.82-1.92 2.47-3.29 3.57-4.94.55-1.1 1.1-2.19 1.92-2.74.55-.55.82-1.1 1.1-1.37.27-1.1.82-1.92 1.64-2.47 1.64-2.19 3.57-4.39 4.94-6.86.82-.82 1.37-1.92 2.19-2.74.27-.27.27-.82.55-1.1.55-.27 1.1-.82 1.64-1.64.28-.27.82-.27 1.37-.82 0-1.1 1.37-1.64 1.65-3.02.55-1.1 1.64-1.65 1.92-3.02 0 0 .27-.27.27-.55 1.1-.82 1.65-1.64 2.47-2.74.55-.82 1.1-1.65 1.92-2.47.55-.55 1.1-1.1 1.37-1.92.82-1.1 1.64-2.19 2.47-3.29 0 0 0-.28.27-.28 1.37-1.1 2.74-3.02 4.12-4.39 1.1-1.37 2.19-2.47 3.29-3.84.82-.82.82-.82 2.74-1.64 1.1-1.37 2.47-2.74 4.66-2.74.55-.55 1.1-.82 1.92-1.37h2.47c.27 0 .27.28.55.55.82.27 1.37-.27 1.64-.55.82 0 1.37.28 1.92 0 .27-.27.55-1.1 1.37-1.37.55 0 .82.55 1.37.55.82 1.64 1.37 3.02 2.19 4.39 0 .55.27.82.27 1.1.27 1.1.82 1.64 1.37 2.47.27.27.55.82.82 1.37.27.55.55.82 1.1 1.37l2.47 2.47c.27 1.1.27 1.92.27 2.74-.27 1.37-.27 2.74-.27 4.12.27 2.19-.28 4.39-1.37 6.31-.55 1.37-1.1 2.74-1.64 4.11-.27.27-.27.82-.27 1.37-.55.82-1.37 1.64-1.92 2.74-.27.82-.55 1.65-1.1 2.19-1.1 1.1-1.92 2.19-2.74 3.29-1.37 1.64-2.74 3.29-3.56 5.48-.55 1.64-1.65 3.29-3.02 4.94-.55.27-.82.82-1.1 1.64-.55 1.65-1.37 3.02-2.19 4.66-.82.82-1.1 1.92-1.64 3.02-.82 1.37-1.64 2.74-2.47 4.12-.82 1.1-1.92 2.19-2.47 3.29-.55.82-1.1 1.37-1.92 2.19-1.65 1.92-3.02 4.11-4.66 6.03-1.1 1.1-1.37 2.19-1.37 4.39-.27.27-.82 0-1.1.55v.27c.27.27.55.27.55.55-.27.55-.55 0-1.1 0-.55.28-.82.82-1.37 1.1-.82.82-1.64 1.65-1.92 2.74 0 .28-.27.55-.55.55-.82.82-1.37 2.19-1.92 3.29-.55.55-1.1 1.1-1.64 1.37-.28.55-.55.82-.82 1.1-1.37 1.37-2.47 2.74-3.57 4.12-.55.82-1.1 1.64-1.64 2.19-.55.82-1.37 1.92-2.19 2.74-1.1 1.64-1.92 3.29-2.74 5.21-.27 1.37-1.1 2.19-2.19 3.29-.27.28-.55 1.1-1.37 1.1 0-.82.55-1.1.82-1.64-.55 0-.82.55-.82.82-.55.82-1.1 1.37-1.64 1.64-.27.27-.55.27-.55.55-1.1 1.37-2.47 2.74-3.29 4.39-.82 1.37-1.65 2.74-2.47 4.11-.27.82-.55 1.65-1.1 2.47-1.1 1.37-2.47 3.02-3.57 4.39-.82 1.1-1.64 2.19-2.47 3.29-.82 1.1-1.64 2.47-2.74 3.29-.55.55-.82 1.1-1.1 1.92-.55 1.1-1.37 1.92-2.19 2.74-.55.27-.82.55-1.1.82-.82 1.65-1.92 3.02-3.29 4.39-.82 1.1-1.37 2.19-1.37 3.29 0 1.65-.55 2.74-1.65 3.84-.82.82-1.1 2.19-1.92 3.02-1.65 1.64-2.47 3.84-4.12 5.48-1.64 1.92-3.02 3.84-4.66 6.03-.82 1.37-1.92 2.47-2.47 4.11-1.37 1.1-1.92 2.74-3.57 3.84-.27 0-.27-.55-.82-.55-.27 0-.27.27-.27.55.27.55.55.28.82.55-.55.55-1.1 1.37-1.37 2.19-.55.55-1.1.55-1.37 1.37-.28.55-.82 1.37-1.1 1.92-.28.82-.55 1.37-1.37 1.37-.55 1.37-1.1 2.74-2.19 3.84-.27.82-.82 1.65-1.1 2.19-1.1 1.64-2.19 3.29-3.02 5.21-.82 1.92-1.92 3.84-3.29 5.76 0 .27-.27.55-.27.82-.55 1.37-1.1 2.47-1.92 3.56-.27.28-.27.28-.55.28-.55-.55.27-1.1.27-1.65-.55.55-.82 1.1-1.1 1.65-.27 1.1-.82 1.92-1.64 2.47 0 .27-.27.27-.27.27-.28 0-.28-.27-.28-.55.28-1.37.55-2.47.82-3.84 0-.55 0-1.1-.27-1.64-.27-.27-.55-.55-.82-1.1 0-.55 0-1.1.27-1.92.28-.82.55-1.92.55-2.74-.55-1.92-1.65-3.02-3.29-3.29 0-1.1.82-2.19-.27-3.02-.82-.27-1.1.55-1.92.55-.27-.55 0-1.1 0-1.37.82-1.1.55-2.19.82-3.57.27-.27 0-.82-.27-1.1s-.55 0-.82 0c-.55 1.1-1.37 1.92-1.92 3.02-.28-.82-.28-.82.27-1.92 0-.55-.27-.82-.27-1.37.55-1.1 1.1-2.19.55-3.29v-.82c.55-1.65 1.1-3.29 1.37-4.94.27-.55.27-.82.55-1.37 1.1-1.92 1.92-4.39 2.74-6.58.55-1.64 1.1-3.29 1.64-4.94.27-.55.27-1.1.27-1.92 0-.82.55-1.37.82-2.19.55-2.47 1.64-4.66 2.74-7.13.82-1.64 1.65-3.29 2.74-5.21.55-1.1 1.1-2.19 1.65-3.57.27-.82.82-1.37 1.37-1.92 0-.27.27-.27.27-.55 0-1.37 1.1-2.47 1.64-3.84.82-1.37 1.37-2.74 1.92-4.11 0-.82.82-1.64 1.1-2.19.55-1.37 1.1-2.74 1.92-3.84.55-.55.82-1.1 1.1-1.92.82-1.92 2.19-3.84 3.02-5.76 1.1-2.19 2.74-4.11 3.84-6.31.55-1.37 1.37-2.74 2.19-4.11.28-.55.55-1.1 1.1-1.65 1.37-1.64 2.47-3.56 3.57-5.48.82-1.37.82-2.74 0-3.84-.82-1.37-1.1-2.74-.82-4.11.28-.82.28-1.37 0-2.19-.27-2.19-.82-4.39-1.37-6.58-.27-1.65-.55-3.57-.55-5.21-.27-1.37-.27-2.47-.55-3.57 0-.55-.27-.82-.82-1.37-.55-.82-.82-1.65-.82-2.47v-.82c.27-2.74-.55-5.21-1.37-7.68-.27-1.1-.55-1.92-.55-3.02-.28-1.64-.55-3.29-1.37-4.93-.28-.82-.28-1.92-.55-2.74 0-1.1 0-2.47-.27-3.84v-2.19c0-.82 0-1.92-.27-2.74-.55-2.47-1.37-4.66-1.1-7.13s-.27-4.94-.82-7.4c-.55-2.19-.55-4.39-.55-6.58 0-1.92-.28-3.84-1.65-5.21-.27-.55-.27-1.1-.55-1.64 0-.27.55-.55.55-.82v-1.1c-.55-1.37-.27-3.02-.55-4.39 0-1.37.27-2.74.55-4.11 0-1.1.55-2.19 1.37-3.02-.27-1.37.28-2.47.28-3.57 0-.55 0-1.1.27-1.37.55-.82.82-1.37.82-1.92.27-.27.55-.27.82-.27 0 .55-.27.82-.27 1.37h-.27c0 .27.27.27.27 0 .54.03.54-.52.82-1.07z" />
  </g>
</svg>
